<?xml version="1.0" standalone="no"?>
<!DOCTYPE svg PUBLIC "-//W3C//DTD SVG 20010904//EN"
 "http://www.w3.org/TR/2001/REC-SVG-20010904/DTD/svg10.dtd">
<svg version="1.0" xmlns="http://www.w3.org/2000/svg"
 width="1104.000000pt" height="1104.000000pt" viewBox="0 0 1104.000000 1104.000000"
 preserveAspectRatio="xMidYMid meet">
<metadata>
Created by potrace 1.14, written by Peter Selinger 2001-2017
</metadata>
<g transform="translate(0.000000,1104.000000) scale(0.100000,-0.100000)"
fill="#000000" stroke="none">
<path d="M6236 11032 c-3 -2 -20 -6 -38 -7 -61 -5 -111 -17 -202 -46 -183 -60
-354 -165 -487 -299 -72 -73 -189 -227 -189 -248 0 -6 -4 -12 -8 -14 -19 -7
-103 -214 -118 -288 -3 -14 -9 -44 -14 -66 -88 -395 68 -853 383 -1129 37 -33
74 -66 82 -72 7 -7 18 -13 23 -13 6 0 12 -4 14 -8 6 -15 222 -131 224 -121 0
2 7 -1 15 -7 8 -7 30 -15 49 -19 19 -4 40 -11 45 -15 6 -4 35 -13 65 -19 30
-6 66 -14 80 -17 104 -22 299 -22 415 0 11 2 38 7 60 10 22 4 60 14 85 23 25
8 50 16 55 18 46 14 71 24 154 67 166 85 314 212 427 364 30 40 54 76 54 79 0
3 12 24 26 47 14 23 27 46 29 52 1 6 14 38 30 71 15 33 29 67 31 75 50 196 54
222 58 355 6 260 -70 510 -221 724 -60 85 -200 225 -283 283 -36 25 -99 64
-141 86 -77 42 -265 110 -322 117 -18 2 -43 7 -57 10 -30 8 -317 15 -324 7z"/>
<path d="M3498 8853 c-19 -5 -33 -38 -29 -67 3 -18 24 -46 35 -46 3 0 80 -53
172 -117 91 -65 174 -122 182 -128 9 -5 21 -14 27 -20 7 -5 24 -19 40 -30 15
-11 42 -32 60 -47 18 -16 37 -28 43 -28 6 0 12 -4 14 -8 2 -5 23 -24 48 -43
25 -19 54 -42 65 -51 11 -9 40 -33 65 -53 67 -56 139 -116 185 -155 22 -19 45
-39 51 -45 126 -109 369 -347 490 -481 100 -109 90 -99 148 -169 28 -33 57
-67 65 -76 19 -19 42 -49 56 -71 6 -9 35 -49 66 -90 105 -138 213 -304 310
-475 39 -69 143 -280 154 -313 1 -3 11 -25 22 -50 23 -52 74 -184 77 -203 2
-6 6 -19 9 -27 21 -51 84 -271 92 -320 2 -14 10 -54 19 -90 8 -36 17 -90 21
-120 9 -74 14 -105 19 -137 23 -122 23 -550 2 -703 -2 -14 -7 -49 -11 -79 -4
-30 -9 -63 -11 -75 -3 -12 -7 -34 -9 -51 -28 -201 -112 -505 -207 -749 -18
-44 -33 -83 -33 -86 -1 -3 -11 -27 -23 -53 -12 -27 -22 -51 -22 -53 0 -6 -187
-384 -203 -409 -7 -11 -20 -32 -30 -47 -10 -16 -15 -28 -12 -28 4 0 -1 -7 -9
-16 -9 -8 -16 -21 -16 -29 0 -7 -3 -15 -8 -17 -6 -3 -91 -138 -101 -163 -2 -5
-8 -14 -13 -20 -5 -5 -39 -55 -75 -110 -36 -55 -69 -101 -74 -103 -5 -2 -9 -8
-9 -13 0 -10 -130 -188 -230 -314 -30 -38 -59 -76 -65 -83 -5 -7 -17 -21 -25
-30 -9 -9 -36 -42 -60 -72 -25 -30 -49 -60 -55 -66 -15 -16 -110 -125 -135
-154 -192 -222 -644 -665 -921 -900 -9 -8 -36 -31 -59 -50 -23 -19 -47 -40
-54 -46 -6 -5 -51 -43 -101 -83 -49 -41 -91 -77 -93 -82 -2 -5 -10 -9 -17 -9
-7 0 -15 -4 -17 -8 -1 -4 -23 -23 -48 -42 -25 -19 -47 -38 -50 -41 -3 -3 -48
-38 -100 -77 -52 -39 -99 -75 -105 -79 -5 -5 -44 -33 -85 -63 -41 -30 -77 -57
-80 -60 -3 -3 -39 -27 -80 -55 -41 -27 -76 -53 -78 -57 -2 -5 -8 -8 -13 -8 -5
0 -17 -6 -26 -14 -40 -33 -114 -86 -118 -86 -14 0 -86 -81 -82 -93 7 -22 117
1 222 47 17 7 55 24 85 37 104 45 395 196 555 288 219 127 213 123 277 164 31
21 60 37 63 37 3 0 11 5 18 10 7 6 107 73 222 149 211 140 303 203 405 276 58
42 308 228 325 242 6 4 75 60 155 123 80 63 163 129 185 148 22 19 54 46 71
61 17 14 42 35 55 45 58 47 215 185 266 234 13 12 26 22 28 22 2 0 27 21 54
48 28 26 96 90 152 142 178 166 639 634 639 648 0 3 8 12 18 21 9 9 51 54 92
101 41 47 77 87 80 90 3 3 30 34 60 70 30 36 57 67 61 70 3 3 45 55 93 115 49
61 105 130 125 154 20 24 40 51 45 60 5 9 16 24 25 33 25 27 104 134 206 278
28 38 58 80 68 92 9 11 17 24 17 28 0 4 13 22 29 41 16 18 27 37 25 41 -3 4 0
8 6 8 6 0 14 10 19 22 5 13 16 32 25 43 29 36 236 361 236 370 0 2 22 40 50
85 27 45 50 83 50 86 0 2 10 21 23 42 59 94 267 499 267 520 0 6 5 12 10 12 6
0 10 5 10 12 0 6 13 39 29 72 38 80 81 175 81 181 0 2 11 28 24 57 85 188 229
586 296 818 12 41 25 86 30 100 11 32 37 127 44 160 3 14 10 43 16 65 11 44
49 208 56 240 2 11 8 40 14 65 15 67 18 87 49 270 25 150 30 186 36 231 2 19
7 50 10 69 3 19 8 60 10 90 3 30 7 71 9 90 5 35 16 164 21 230 14 180 25 682
17 703 -2 4 -5 59 -7 122 -2 63 -6 119 -10 125 -13 22 -49 8 -123 -49 -173
-131 -560 -375 -588 -370 -4 0 -10 -3 -13 -8 -6 -9 -213 -113 -224 -113 -2 0
-22 -8 -43 -17 -22 -9 -41 -17 -44 -18 -3 -1 -12 -5 -20 -8 -98 -42 -390 -129
-475 -142 -179 -28 -245 -37 -325 -42 -122 -8 -355 -8 -445 1 -38 4 -92 9
-120 12 -51 5 -65 7 -145 19 -25 4 -52 8 -60 9 -82 12 -196 35 -360 72 -14 3
-32 7 -40 9 -8 2 -15 4 -15 5 0 1 -7 3 -15 5 -75 15 -420 114 -507 145 -29 10
-53 16 -53 14 0 -2 -13 2 -30 11 -16 9 -30 13 -30 9 0 -4 -6 -2 -12 3 -11 9
-28 15 -83 29 -18 4 -169 56 -190 65 -11 5 -49 18 -85 29 -36 11 -74 25 -85
30 -11 5 -85 32 -165 60 -80 28 -167 60 -195 70 -27 10 -133 49 -235 86 -102
36 -221 79 -264 95 -44 16 -80 28 -80 28 -1 -1 -9 -3 -18 -6z"/>
</g>
</svg>
