<svg width="3415" height="1104" viewBox="0 0 3415 1104" fill="none" xmlns="http://www.w3.org/2000/svg">
<path d="M746.931 745C730.363 745 716.931 731.568 716.931 715V241.224C716.931 224.655 730.363 211.224 746.931 211.224H772.786C786.134 211.224 794.565 217.723 798.078 230.72L804.082 277.891C804.621 282.13 809.913 283.806 812.88 280.731C834.116 258.72 857.461 240.645 882.913 226.505C911.718 210.697 944.915 202.793 982.502 202.793C1011.66 202.793 1037.3 207.711 1059.43 217.547C1081.92 227.032 1100.53 240.732 1115.29 258.647C1130.39 276.211 1141.81 297.464 1149.54 322.405C1157.27 347.346 1161.13 374.922 1161.13 405.133V715C1161.13 731.568 1147.7 745 1131.13 745H1097.34C1080.77 745 1067.34 731.568 1067.34 715V405.133C1067.34 364.735 1058.03 333.471 1039.41 311.34C1021.14 288.858 993.041 277.617 955.102 277.617C927.351 277.617 901.355 284.291 877.117 297.64C856.234 309.309 836.694 324.603 818.497 343.521C813.389 348.831 810.724 355.985 810.724 363.352V715C810.724 731.568 797.293 745 780.724 745H746.931Z" fill="url(#paint0_radial_13_208)"/>
<path d="M1616.14 291.975C1609.84 302.351 1595.2 303.647 1585.69 296.104C1573.72 286.612 1559.67 278.477 1543.53 271.698C1518.57 261.214 1490.11 255.972 1458.16 255.972C1411.23 255.972 1377.03 264.958 1355.56 282.932C1334.09 300.406 1323.36 324.371 1323.36 354.826C1323.36 370.802 1326.1 384.033 1331.59 394.517C1337.59 404.502 1346.57 413.24 1358.55 420.728C1370.54 428.217 1385.76 434.708 1404.24 440.2C1423.21 445.692 1445.43 451.184 1470.89 456.675C1499.35 462.667 1524.81 469.407 1547.28 476.896C1570.24 484.385 1589.71 493.871 1605.69 505.354C1621.67 516.337 1633.9 529.818 1642.39 545.794C1650.87 561.77 1655.12 581.741 1655.12 605.706C1655.12 630.169 1650.37 651.388 1640.89 669.362C1631.4 687.335 1618.17 702.313 1601.2 714.295C1584.22 726.278 1564 735.264 1540.54 741.255C1517.07 746.747 1491.36 749.493 1463.4 749.493C1386.4 749.493 1319.21 727.026 1261.83 682.092C1254.87 676.64 1253.37 666.813 1258 659.277L1263.92 649.631C1270.11 639.554 1284.21 638.071 1293.32 645.612C1298.48 649.887 1304 654.059 1309.88 658.128C1323.36 667.115 1338.08 675.103 1354.06 682.093C1370.54 688.583 1388.01 693.826 1406.48 697.82C1424.96 701.314 1444.43 703.062 1464.9 703.062C1507.33 703.062 1540.29 695.573 1563.75 680.595C1587.72 665.118 1599.7 641.902 1599.7 610.948C1599.7 594.472 1596.2 580.742 1589.21 569.759C1582.72 558.276 1572.74 548.54 1559.26 540.552C1545.78 532.064 1529.05 524.825 1509.08 518.834C1489.11 512.843 1465.9 506.851 1439.44 500.86C1411.48 494.37 1387.01 487.63 1366.04 480.64C1345.07 473.65 1327.35 464.913 1312.87 454.429C1298.39 443.944 1287.41 431.463 1279.92 416.984C1272.93 402.006 1269.44 383.783 1269.44 362.315C1269.44 337.851 1273.93 316.133 1282.92 297.161C1292.4 277.69 1305.63 261.713 1322.61 249.232C1339.58 236.251 1359.55 226.515 1382.52 220.025C1405.49 213.035 1430.95 209.54 1458.91 209.54C1494.35 209.54 1525.81 215.032 1553.27 226.016C1576.44 234.706 1597.73 246.483 1617.13 261.347C1624.1 266.685 1625.57 276.438 1621.02 283.94L1616.14 291.975Z" fill="url(#paint1_radial_13_208)"/>
<path d="M1769.29 745C1759.35 745 1751.29 736.941 1751.29 727V231.285C1751.29 221.344 1759.35 213.285 1769.29 213.285H1785.71C1795.66 213.285 1803.71 221.344 1803.71 231.285V727C1803.71 736.941 1795.66 745 1785.71 745H1769.29Z" fill="url(#paint2_radial_13_208)"/>
<path d="M2324.98 667.115C2275.55 721.535 2218.64 748.744 2154.23 748.744C2118.28 748.744 2085.08 741.006 2054.63 725.529C2024.67 710.052 1998.46 689.582 1975.99 664.119C1954.03 638.657 1936.8 609.949 1924.32 577.996C1911.84 545.544 1905.6 512.343 1905.6 478.393C1905.6 442.946 1911.59 408.996 1923.57 376.544C1936.05 344.092 1953.28 315.634 1975.25 291.17C1997.21 266.207 2023.18 246.486 2053.13 232.007C2083.09 217.029 2115.79 209.54 2151.24 209.54C2177.2 209.54 2200.91 212.536 2222.38 218.527C2243.85 224.019 2262.82 232.007 2279.3 242.492C2296.27 252.477 2310.75 264.709 2322.73 279.187C2331.71 289.243 2339.66 300.073 2346.57 311.679C2351.21 319.478 2348.52 329.398 2340.97 334.433L2330.31 341.538C2321.44 347.448 2309.48 344.351 2303.66 335.423C2287.81 311.086 2268.46 292.591 2245.6 279.936C2217.64 264.459 2185.94 256.721 2150.49 256.721C2121.03 256.721 2094.32 262.961 2070.36 275.443C2046.89 287.924 2026.67 304.65 2009.7 325.619C1993.22 346.089 1980.49 369.804 1971.5 396.764C1962.51 423.225 1958.02 450.684 1958.02 479.142C1958.02 509.098 1963.01 537.556 1973 564.516C1983.48 591.477 1997.71 615.192 2015.69 635.661C2033.66 655.632 2054.63 671.608 2078.59 683.591C2103.06 695.573 2129.52 701.564 2157.98 701.564C2188.43 701.564 2217.39 694.574 2244.85 680.595C2271.29 666.9 2296.62 645.833 2320.84 617.396C2323.54 614.22 2324.98 610.165 2324.98 605.994V542.076C2324.98 532.135 2316.92 524.076 2306.98 524.076H2224.65C2214.71 524.076 2206.65 516.017 2206.65 506.076V501.636C2206.65 491.695 2214.71 483.636 2224.65 483.636H2351.16C2361.11 483.636 2369.16 491.695 2369.16 501.636V727C2369.16 736.941 2361.11 745 2351.16 745H2342.98C2333.04 745 2324.98 736.941 2324.98 727V667.115Z" fill="url(#paint3_radial_13_208)"/>
<path d="M2882 213.285C2891.94 213.285 2900 221.344 2900 231.285V727C2900 736.941 2891.94 745 2882 745H2866.32C2856.38 745 2848.32 736.941 2848.32 727V514.367C2848.32 504.426 2840.26 496.367 2830.32 496.367H2551.04C2541.1 496.367 2533.04 504.426 2533.04 514.367V727C2533.04 736.941 2524.98 745 2515.04 745H2498.62C2488.67 745 2480.62 736.941 2480.62 727V231.285C2480.62 221.344 2488.67 213.285 2498.62 213.285H2515.04C2524.98 213.285 2533.04 221.344 2533.04 231.285V431.935C2533.04 441.877 2541.1 449.935 2551.04 449.935H2830.32C2840.26 449.935 2848.32 441.877 2848.32 431.935V231.285C2848.32 221.344 2856.38 213.285 2866.32 213.285H2882Z" fill="url(#paint4_radial_13_208)"/>
<path d="M3414.7 241.716C3414.7 251.657 3406.64 259.716 3396.7 259.716H3243.23C3233.29 259.716 3225.23 267.775 3225.23 277.716V727C3225.23 736.941 3217.17 745 3207.23 745H3190.8C3180.86 745 3172.8 736.941 3172.8 727V277.716C3172.8 267.775 3164.75 259.716 3154.8 259.716H3001.33C2991.39 259.716 2983.33 251.657 2983.33 241.716V231.285C2983.33 221.344 2991.39 213.285 3001.33 213.285H3396.7C3406.64 213.285 3414.7 221.344 3414.7 231.285V241.716Z" fill="url(#paint5_radial_13_208)"/>
<path d="M2054.49 889.849C2054.49 900.242 2052.8 909.823 2049.42 918.592C2046.04 927.36 2041.27 934.928 2035.1 941.293C2028.99 947.594 2021.62 952.53 2012.98 956.103C2004.41 959.675 1994.86 961.461 1984.34 961.461C1973.88 961.461 1964.33 959.675 1955.69 956.103C1947.12 952.53 1939.74 947.594 1933.57 941.293C1927.4 934.928 1922.63 927.36 1919.25 918.592C1915.87 909.823 1914.18 900.242 1914.18 889.849C1914.18 879.457 1915.87 869.876 1919.25 861.107C1922.63 852.338 1927.4 844.771 1933.57 838.406C1939.74 832.04 1947.12 827.071 1955.69 823.499C1964.33 819.926 1973.88 818.14 1984.34 818.14C1994.86 818.14 2004.41 819.926 2012.98 823.499C2021.62 827.071 2028.99 832.04 2035.1 838.406C2041.27 844.771 2046.04 852.338 2049.42 861.107C2052.8 869.876 2054.49 879.457 2054.49 889.849ZM2031.2 889.849C2031.2 881.795 2030.1 874.553 2027.89 868.122C2025.74 861.692 2022.63 856.236 2018.53 851.754C2014.51 847.272 2009.6 843.829 2003.82 841.426C1998.04 839.023 1991.55 837.821 1984.34 837.821C1977.19 837.821 1970.73 839.023 1964.95 841.426C1959.17 843.829 1954.23 847.272 1950.14 851.754C1946.04 856.236 1942.89 861.692 1940.69 868.122C1938.48 874.553 1937.37 881.795 1937.37 889.849C1937.37 897.969 1938.48 905.243 1940.69 911.674C1942.89 918.104 1946.04 923.561 1950.14 928.042C1954.23 932.459 1959.17 935.869 1964.95 938.273C1970.73 940.611 1977.19 941.78 1984.34 941.78C1991.55 941.78 1998.04 940.611 2003.82 938.273C2009.6 935.869 2014.51 932.459 2018.53 928.042C2022.63 923.561 2025.74 918.104 2027.89 911.674C2030.1 905.243 2031.2 897.969 2031.2 889.849Z" fill="url(#paint6_radial_13_208)"/>
<path d="M2100.29 867.859C2100.68 870.298 2103.72 871.276 2105.59 869.67C2106.34 869.031 2107.1 868.418 2107.86 867.83C2110.2 866.011 2112.66 864.452 2115.26 863.153C2117.86 861.854 2120.62 860.847 2123.54 860.133C2126.47 859.418 2129.65 859.061 2133.09 859.061C2138.55 859.061 2143.32 859.97 2147.42 861.789C2151.57 863.608 2155.05 866.173 2157.84 869.486C2160.7 872.799 2162.84 876.794 2164.27 881.47C2165.7 886.082 2166.41 891.181 2166.41 896.767V957C2166.41 958.657 2165.07 960 2163.41 960H2148.56C2146.91 960 2145.56 958.657 2145.56 957V896.767C2145.56 890.077 2144.01 884.88 2140.89 881.178C2137.83 877.476 2133.16 875.624 2126.86 875.624C2122.18 875.624 2117.83 876.696 2113.8 878.84C2110.15 880.814 2106.69 883.451 2103.43 886.749C2102.89 887.295 2102.6 888.036 2102.6 888.804V957C2102.6 958.657 2101.25 960 2099.6 960H2084.65C2082.99 960 2081.65 958.657 2081.65 957V863.62C2081.65 861.963 2082.99 860.62 2084.65 860.62H2094.32C2097.17 860.62 2098.99 861.951 2099.77 864.615L2100.29 867.859Z" fill="url(#paint7_radial_13_208)"/>
<path d="M2260.86 899.105C2262.51 899.105 2263.87 897.759 2263.72 896.109C2263.51 893.729 2263.03 891.481 2262.3 889.362C2261.32 886.309 2259.86 883.679 2257.91 881.47C2255.96 879.197 2253.53 877.443 2250.6 876.209C2247.75 874.91 2244.43 874.26 2240.67 874.26C2233.07 874.26 2227.09 876.436 2222.74 880.788C2219.04 884.487 2216.49 889.452 2215.09 895.684C2214.69 897.472 2216.1 899.105 2217.94 899.105H2260.86ZM2217.01 911.966C2215.3 911.966 2213.93 913.396 2214.09 915.1C2214.49 919.45 2215.29 923.31 2216.5 926.678C2218 930.771 2219.98 934.181 2222.45 936.909C2224.98 939.637 2227.97 941.683 2231.41 943.047C2234.92 944.346 2238.82 944.995 2243.1 944.995C2247.19 944.995 2250.73 944.541 2253.72 943.631C2256.71 942.657 2259.31 941.618 2261.52 940.514C2263.73 939.344 2265.61 938.305 2267.17 937.396C2268.73 936.422 2270.16 935.934 2271.45 935.934C2273.14 935.934 2274.44 936.584 2275.35 937.883L2279.81 943.662C2280.68 944.781 2280.65 946.36 2279.68 947.383C2277.62 949.532 2275.37 951.399 2272.92 952.985C2269.8 954.998 2266.49 956.655 2262.98 957.954C2259.47 959.188 2255.87 960.065 2252.16 960.585C2248.46 961.169 2244.86 961.461 2241.35 961.461C2234.46 961.461 2228.07 960.325 2222.15 958.051C2216.31 955.713 2211.21 952.303 2206.86 947.821C2202.57 943.339 2199.19 937.786 2196.72 931.16C2194.32 924.535 2193.12 916.903 2193.12 908.264C2193.12 901.379 2194.19 894.948 2196.34 888.972C2198.54 882.997 2201.66 877.8 2205.69 873.383C2209.78 868.967 2214.72 865.491 2220.5 862.958C2226.34 860.36 2232.94 859.061 2240.28 859.061C2246.38 859.061 2252.03 860.068 2257.23 862.081C2262.43 864.03 2266.91 866.92 2270.68 870.753C2274.44 874.585 2277.37 879.294 2279.44 884.88C2281.59 890.401 2282.66 896.702 2282.66 903.782C2282.66 907.03 2282.3 909.206 2281.59 910.31C2280.87 911.414 2279.57 911.966 2277.69 911.966H2217.01Z" fill="url(#paint8_radial_13_208)"/>
<path d="M2443.57 843.667C2442.86 844.836 2442.11 845.713 2441.33 846.297C2440.55 846.817 2439.58 847.077 2438.41 847.077C2437.17 847.077 2435.78 846.557 2434.22 845.518C2432.72 844.479 2430.84 843.342 2428.57 842.108C2426.36 840.809 2423.73 839.64 2420.68 838.6C2417.62 837.496 2413.98 836.944 2409.76 836.944C2405.87 836.944 2402.42 837.431 2399.44 838.406C2396.51 839.38 2394.04 840.744 2392.03 842.498C2390.02 844.251 2388.49 846.33 2387.45 848.733C2386.48 851.072 2385.99 853.637 2385.99 856.43C2385.99 860.003 2386.93 862.991 2388.82 865.394C2390.7 867.732 2393.17 869.746 2396.22 871.435C2399.34 873.124 2402.88 874.618 2406.84 875.917C2410.8 877.151 2414.83 878.482 2418.92 879.911C2423.08 881.34 2427.14 882.964 2431.1 884.783C2435.06 886.602 2438.57 888.907 2441.62 891.701C2444.74 894.494 2447.24 897.904 2449.13 901.931C2451.01 905.958 2451.95 910.862 2451.95 916.643C2451.95 922.879 2450.88 928.724 2448.74 934.181C2446.59 939.637 2443.47 944.411 2439.38 948.503C2435.36 952.53 2430.35 955.713 2424.38 958.051C2418.47 960.39 2411.71 961.559 2404.11 961.559C2399.63 961.559 2395.25 961.104 2390.96 960.195C2386.74 959.35 2382.68 958.149 2378.78 956.59C2374.95 954.966 2371.34 953.017 2367.96 950.744C2365.26 948.92 2362.78 946.929 2360.53 944.771C2359.55 943.833 2359.39 942.339 2360.1 941.18L2365.53 932.232C2366.11 931.323 2366.86 930.608 2367.77 930.089C2368.68 929.569 2369.69 929.309 2370.79 929.309C2372.28 929.309 2373.94 930.023 2375.76 931.453C2377.58 932.817 2379.75 934.343 2382.29 936.032C2384.89 937.656 2388 939.182 2391.64 940.611C2395.28 941.975 2399.63 942.657 2404.7 942.657C2412.95 942.657 2419.31 940.644 2423.79 936.616C2428.34 932.589 2430.61 927.036 2430.61 919.956C2430.61 915.993 2429.67 912.778 2427.79 910.31C2425.9 907.777 2423.4 905.666 2420.29 903.977C2417.23 902.288 2413.73 900.859 2409.76 899.69C2405.8 898.521 2401.77 897.287 2397.68 895.987C2393.59 894.623 2389.56 893.065 2385.6 891.311C2381.64 889.492 2378.1 887.154 2374.98 884.296C2371.93 881.373 2369.46 877.8 2367.58 873.578C2365.69 869.291 2364.75 863.965 2364.75 857.6C2364.75 852.533 2365.72 847.629 2367.67 842.887C2369.69 838.146 2372.58 833.956 2376.34 830.319C2380.18 826.616 2384.89 823.661 2390.47 821.452C2396.06 819.244 2402.42 818.14 2409.57 818.14C2417.62 818.14 2424.99 819.406 2431.69 821.94C2437.7 824.194 2442.96 827.298 2447.48 831.251C2448.48 832.121 2448.72 833.56 2448.12 834.738L2443.57 843.667Z" fill="url(#paint9_radial_13_208)"/>
<path d="M2507.96 961.559C2499.71 961.559 2493.35 959.253 2488.87 954.641C2484.45 949.964 2482.24 943.404 2482.24 934.96V880.086C2482.24 878.429 2480.9 877.086 2479.24 877.086H2471.33C2470.16 877.086 2469.15 876.729 2468.31 876.014C2467.46 875.235 2467.04 874.098 2467.04 872.604V866.723C2467.04 865.233 2468.13 863.968 2469.61 863.754L2480.93 862.107C2482.23 861.918 2483.26 860.906 2483.46 859.61L2487.7 833.047C2488.02 831.943 2488.57 831.066 2489.35 830.416C2490.13 829.702 2491.17 829.344 2492.47 829.344H2500.19C2501.84 829.344 2503.19 830.688 2503.19 832.344V858.984C2503.19 860.641 2504.53 861.984 2506.19 861.984H2527.76C2529.42 861.984 2530.76 863.327 2530.76 864.984V874.086C2530.76 875.743 2529.42 877.086 2527.76 877.086H2506.19C2504.53 877.086 2503.19 878.429 2503.19 880.086V933.499C2503.19 937.071 2504.06 939.799 2505.82 941.683C2507.57 943.566 2509.91 944.508 2512.83 944.508C2514.46 944.508 2515.85 944.313 2517.02 943.924C2518.19 943.469 2519.2 943.014 2520.04 942.56C2520.89 942.04 2521.6 941.585 2522.19 941.196C2522.84 940.741 2523.45 940.514 2524.04 940.514C2525.21 940.514 2526.15 941.163 2526.86 942.462L2531.79 950.542C2532.55 951.786 2532.31 953.407 2531.15 954.28C2528.34 956.382 2525.16 958.061 2521.6 959.318C2517.19 960.812 2512.64 961.559 2507.96 961.559Z" fill="url(#paint10_radial_13_208)"/>
<path d="M2616.49 899.105C2618.14 899.105 2619.5 897.759 2619.36 896.109C2619.14 893.729 2618.67 891.481 2617.93 889.362C2616.95 886.309 2615.49 883.679 2613.54 881.47C2611.6 879.197 2609.16 877.443 2606.24 876.209C2603.38 874.91 2600.07 874.26 2596.3 874.26C2588.7 874.26 2582.72 876.436 2578.37 880.788C2574.67 884.487 2572.12 889.452 2570.72 895.684C2570.32 897.472 2571.74 899.105 2573.57 899.105H2616.49ZM2572.65 911.966C2570.93 911.966 2569.56 913.396 2569.72 915.1C2570.12 919.45 2570.92 923.31 2572.14 926.678C2573.63 930.771 2575.61 934.181 2578.08 936.909C2580.61 939.637 2583.6 941.683 2587.04 943.047C2590.55 944.346 2594.45 944.995 2598.73 944.995C2602.83 944.995 2606.37 944.541 2609.35 943.631C2612.34 942.657 2614.94 941.618 2617.15 940.514C2619.36 939.344 2621.24 938.305 2622.8 937.396C2624.36 936.422 2625.79 935.934 2627.09 935.934C2628.78 935.934 2630.07 936.584 2630.98 937.883L2635.45 943.662C2636.31 944.781 2636.29 946.36 2635.31 947.383C2633.26 949.532 2631 951.399 2628.55 952.985C2625.43 954.998 2622.12 956.655 2618.61 957.954C2615.1 959.188 2611.5 960.065 2607.8 960.585C2604.09 961.169 2600.49 961.461 2596.98 961.461C2590.1 961.461 2583.7 960.325 2577.79 958.051C2571.94 955.713 2566.84 952.303 2562.49 947.821C2558.2 943.339 2554.83 937.786 2552.36 931.16C2549.95 924.535 2548.75 916.903 2548.75 908.264C2548.75 901.379 2549.82 894.948 2551.97 888.972C2554.18 882.997 2557.29 877.8 2561.32 873.383C2565.41 868.967 2570.35 865.491 2576.13 862.958C2581.98 860.36 2588.57 859.061 2595.91 859.061C2602.01 859.061 2607.67 860.068 2612.86 862.081C2618.06 864.03 2622.54 866.92 2626.31 870.753C2630.07 874.585 2633 879.294 2635.08 884.88C2637.22 890.401 2638.29 896.702 2638.29 903.782C2638.29 907.03 2637.93 909.206 2637.22 910.31C2636.51 911.414 2635.21 911.966 2633.32 911.966H2572.65Z" fill="url(#paint11_radial_13_208)"/>
<path d="M2686.57 934.03C2686.57 934.696 2686.79 935.346 2687.21 935.861C2689.96 939.206 2692.92 941.601 2696.12 943.047C2699.62 944.541 2703.49 945.288 2707.71 945.288C2715.9 945.288 2722.26 942.3 2726.81 936.324C2731.42 930.348 2733.73 921.45 2733.73 909.628C2733.73 903.522 2733.21 898.326 2732.17 894.039C2731.13 889.687 2729.63 886.147 2727.68 883.419C2725.74 880.691 2723.37 878.71 2720.57 877.476C2717.78 876.241 2714.63 875.624 2711.12 875.624C2705.8 875.624 2701.18 876.793 2697.29 879.132C2693.7 881.261 2690.34 884.273 2687.2 888.168C2686.79 888.685 2686.57 889.333 2686.57 889.996V934.03ZM2684.43 868.699C2684.85 871.211 2688.07 872.13 2689.93 870.392C2692.92 867.602 2696.15 865.221 2699.62 863.251C2704.95 860.263 2711.12 858.769 2718.14 858.769C2723.72 858.769 2728.79 859.905 2733.34 862.179C2737.88 864.387 2741.78 867.635 2745.03 871.922C2748.28 876.209 2750.78 881.535 2752.53 887.901C2754.35 894.201 2755.26 901.444 2755.26 909.628C2755.26 916.968 2754.25 923.82 2752.24 930.186C2750.29 936.486 2747.46 941.975 2743.76 946.652C2740.06 951.264 2735.58 954.901 2730.32 957.564C2725.05 960.162 2719.11 961.461 2712.49 961.461C2706.64 961.461 2701.67 960.52 2697.58 958.636C2695.68 957.746 2693.85 956.697 2692.11 955.489C2689.91 953.966 2686.57 955.411 2686.57 958.084V990.029C2686.57 991.686 2685.23 993.029 2683.57 993.029H2668.62C2666.96 993.029 2665.62 991.686 2665.62 990.029V863.62C2665.62 861.963 2666.96 860.62 2668.62 860.62H2678.29C2681.14 860.62 2682.96 861.951 2683.74 864.615L2684.43 868.699Z" fill="url(#paint12_radial_13_208)"/>
<path d="M2941.05 928.724C2942.29 928.724 2943.36 929.212 2944.27 930.186L2951.55 938.097C2952.57 939.202 2952.62 940.895 2951.61 942.008C2946.23 947.942 2939.78 952.607 2932.29 956.005C2923.97 959.708 2914.03 961.559 2902.47 961.559C2892.21 961.559 2882.92 959.805 2874.61 956.298C2866.36 952.725 2859.31 947.789 2853.46 941.488C2847.62 935.122 2843.1 927.555 2839.92 918.786C2836.8 910.018 2835.24 900.372 2835.24 889.849C2835.24 879.327 2836.9 869.681 2840.21 860.912C2843.59 852.078 2848.3 844.511 2854.34 838.211C2860.45 831.845 2867.72 826.909 2876.17 823.401C2884.67 819.894 2894.03 818.14 2904.23 818.14C2914.36 818.14 2923.29 819.796 2931.02 823.109C2937.96 826.002 2944.08 829.771 2949.38 834.417C2950.49 835.398 2950.65 837.064 2949.79 838.279L2943.78 846.785C2943.26 847.499 2942.65 848.116 2941.93 848.636C2941.22 849.156 2940.24 849.415 2939.01 849.415C2937.71 849.415 2936.22 848.831 2934.53 847.661C2932.9 846.427 2930.79 845.096 2928.19 843.667C2925.66 842.173 2922.45 840.841 2918.55 839.672C2914.72 838.438 2909.91 837.821 2904.13 837.821C2897.44 837.821 2891.3 838.99 2885.71 841.328C2880.13 843.667 2875.32 847.077 2871.29 851.559C2867.27 856.041 2864.12 861.497 2861.84 867.927C2859.63 874.358 2858.53 881.665 2858.53 889.849C2858.53 898.099 2859.7 905.471 2862.04 911.966C2864.38 918.397 2867.59 923.853 2871.68 928.335C2875.78 932.752 2880.58 936.129 2886.1 938.468C2891.62 940.806 2897.57 941.975 2903.93 941.975C2907.83 941.975 2911.31 941.78 2914.36 941.391C2917.48 940.936 2920.33 940.254 2922.93 939.344C2925.53 938.37 2927.97 937.169 2930.24 935.74C2932.58 934.31 2934.88 932.557 2937.16 930.478C2938.46 929.309 2939.76 928.724 2941.05 928.724Z" fill="url(#paint13_radial_13_208)"/>
<path d="M2995.26 815.801C2996.92 815.801 2998.26 817.145 2998.26 818.801V957C2998.26 958.657 2996.92 960 2995.26 960H2980.31C2978.65 960 2977.31 958.657 2977.31 957V818.801C2977.31 817.145 2978.65 815.801 2980.31 815.801H2995.26Z" fill="url(#paint14_radial_13_208)"/>
<path d="M3074.88 859.061C3082.22 859.061 3088.84 860.263 3094.75 862.666C3100.73 865.069 3105.8 868.479 3109.95 872.896C3114.17 877.313 3117.42 882.672 3119.7 888.972C3121.97 895.273 3123.11 902.353 3123.11 910.212C3123.11 918.072 3121.97 925.152 3119.7 931.453C3117.42 937.753 3114.17 943.144 3109.95 947.626C3105.8 952.043 3100.73 955.453 3094.75 957.856C3088.84 960.26 3082.22 961.461 3074.88 961.461C3067.47 961.461 3060.78 960.26 3054.81 957.856C3048.9 955.453 3043.83 952.043 3039.61 947.626C3035.38 943.144 3032.14 937.753 3029.86 931.453C3027.59 925.152 3026.45 918.072 3026.45 910.212C3026.45 902.353 3027.59 895.273 3029.86 888.972C3032.14 882.672 3035.38 877.313 3039.61 872.896C3043.83 868.479 3048.9 865.069 3054.81 862.666C3060.78 860.263 3067.47 859.061 3074.88 859.061ZM3074.88 945.093C3083.84 945.093 3090.5 942.105 3094.85 936.129C3099.27 930.088 3101.48 921.482 3101.48 910.31C3101.48 899.138 3099.27 890.531 3094.85 884.491C3090.5 878.385 3083.84 875.332 3074.88 875.332C3065.78 875.332 3059.03 878.385 3054.61 884.491C3050.19 890.531 3047.99 899.138 3047.99 910.31C3047.99 921.482 3050.19 930.088 3054.61 936.129C3059.03 942.105 3065.78 945.093 3074.88 945.093Z" fill="url(#paint15_radial_13_208)"/>
<path d="M3210.36 878.645C3209.84 879.554 3209.26 880.204 3208.61 880.593C3207.96 880.983 3207.15 881.178 3206.17 881.178C3205.07 881.178 3203.87 880.853 3202.57 880.204C3201.27 879.489 3199.74 878.71 3197.99 877.865C3196.24 877.021 3194.16 876.274 3191.75 875.624C3189.41 874.91 3186.65 874.553 3183.47 874.553C3180.87 874.553 3178.5 874.877 3176.36 875.527C3174.28 876.112 3172.49 876.988 3171 878.158C3169.57 879.262 3168.47 880.593 3167.69 882.152C3166.91 883.646 3166.52 885.27 3166.52 887.024C3166.52 889.362 3167.23 891.311 3168.66 892.87C3170.09 894.429 3171.97 895.793 3174.31 896.962C3176.65 898.066 3179.31 899.073 3182.3 899.982C3185.29 900.892 3188.34 901.866 3191.46 902.905C3194.58 903.944 3197.63 905.146 3200.62 906.51C3203.61 907.874 3206.27 909.563 3208.61 911.577C3210.95 913.525 3212.83 915.928 3214.26 918.786C3215.69 921.579 3216.4 924.99 3216.4 929.017C3216.4 933.693 3215.56 938.013 3213.87 941.975C3212.18 945.937 3209.71 949.38 3206.47 952.303C3203.22 955.226 3199.16 957.499 3194.29 959.123C3189.48 960.747 3183.96 961.559 3177.72 961.559C3174.28 961.559 3170.94 961.234 3167.69 960.585C3164.51 960 3161.45 959.188 3158.53 958.149C3155.67 957.044 3152.98 955.745 3150.44 954.251C3148.75 953.224 3147.17 952.136 3145.72 950.986C3144.59 950.089 3144.36 948.487 3145.11 947.254L3148.69 941.391C3149.27 940.416 3149.99 939.669 3150.83 939.15C3151.74 938.565 3152.85 938.273 3154.14 938.273C3155.51 938.273 3156.84 938.727 3158.14 939.637C3159.5 940.481 3161.06 941.423 3162.82 942.462C3164.63 943.502 3166.81 944.476 3169.34 945.385C3171.88 946.23 3175.03 946.652 3178.8 946.652C3181.91 946.652 3184.61 946.295 3186.88 945.58C3189.16 944.801 3191.04 943.761 3192.53 942.462C3194.03 941.163 3195.13 939.702 3195.85 938.078C3196.56 936.389 3196.92 934.603 3196.92 932.719C3196.92 930.186 3196.2 928.107 3194.77 926.484C3193.34 924.86 3191.43 923.463 3189.03 922.294C3186.69 921.125 3183.99 920.086 3180.94 919.176C3177.95 918.267 3174.9 917.292 3171.78 916.253C3168.66 915.214 3165.58 914.012 3162.52 912.648C3159.54 911.284 3156.84 909.563 3154.44 907.484C3152.1 905.341 3150.22 902.775 3148.79 899.787C3147.36 896.734 3146.64 893.032 3146.64 888.68C3146.64 884.718 3147.42 880.951 3148.98 877.378C3150.6 873.806 3152.94 870.655 3156 867.927C3159.11 865.199 3162.91 863.056 3167.4 861.497C3171.94 859.873 3177.17 859.061 3183.08 859.061C3189.77 859.061 3195.85 860.133 3201.3 862.276C3205.94 864.097 3209.94 866.481 3213.31 869.427C3214.35 870.341 3214.53 871.88 3213.8 873.063L3210.36 878.645Z" fill="url(#paint16_radial_13_208)"/>
<path d="M3306.07 899.105C3307.72 899.105 3309.08 897.759 3308.93 896.109C3308.72 893.729 3308.24 891.481 3307.51 889.362C3306.53 886.309 3305.07 883.679 3303.12 881.47C3301.17 879.197 3298.74 877.443 3295.81 876.209C3292.96 874.91 3289.64 874.26 3285.88 874.26C3278.28 874.26 3272.3 876.436 3267.95 880.788C3264.25 884.487 3261.7 889.452 3260.3 895.684C3259.9 897.472 3261.31 899.105 3263.15 899.105H3306.07ZM3262.22 911.966C3260.51 911.966 3259.14 913.396 3259.3 915.1C3259.7 919.45 3260.5 923.31 3261.71 926.678C3263.21 930.771 3265.19 934.181 3267.66 936.909C3270.19 939.637 3273.18 941.683 3276.62 943.047C3280.13 944.346 3284.03 944.995 3288.31 944.995C3292.4 944.995 3295.94 944.541 3298.93 943.631C3301.92 942.657 3304.52 941.618 3306.73 940.514C3308.94 939.344 3310.82 938.305 3312.38 937.396C3313.94 936.422 3315.37 935.934 3316.66 935.934C3318.35 935.934 3319.65 936.584 3320.56 937.883L3325.02 943.662C3325.89 944.781 3325.86 946.36 3324.89 947.383C3322.83 949.532 3320.58 951.399 3318.13 952.985C3315.01 954.998 3311.7 956.655 3308.19 957.954C3304.68 959.188 3301.08 960.065 3297.37 960.585C3293.67 961.169 3290.07 961.461 3286.56 961.461C3279.67 961.461 3273.28 960.325 3267.36 958.051C3261.52 955.713 3256.42 952.303 3252.07 947.821C3247.78 943.339 3244.4 937.786 3241.94 931.16C3239.53 924.535 3238.33 916.903 3238.33 908.264C3238.33 901.379 3239.4 894.948 3241.55 888.972C3243.75 882.997 3246.87 877.8 3250.9 873.383C3254.99 868.967 3259.93 865.491 3265.71 862.958C3271.55 860.36 3278.15 859.061 3285.49 859.061C3291.59 859.061 3297.24 860.068 3302.44 862.081C3307.64 864.03 3312.12 866.92 3315.89 870.753C3319.65 874.585 3322.58 879.294 3324.65 884.88C3326.8 890.401 3327.87 896.702 3327.87 903.782C3327.87 907.03 3327.51 909.206 3326.8 910.31C3326.08 911.414 3324.78 911.966 3322.9 911.966H3262.22Z" fill="url(#paint17_radial_13_208)"/>
<path d="M3373.96 868.591C3374.25 871.594 3378.64 872.509 3380.51 870.137C3382.29 867.868 3384.21 865.897 3386.28 864.225C3390.7 860.587 3395.99 858.769 3402.16 858.769C3404.3 858.769 3406.32 859.029 3408.2 859.548C3409.45 859.85 3410.62 860.267 3411.7 860.798C3412.7 861.289 3413.2 862.385 3413.1 863.493L3411.81 877.476C3411.55 878.58 3411.12 879.359 3410.54 879.814C3410.02 880.204 3409.31 880.398 3408.4 880.398C3407.42 880.398 3406.03 880.236 3404.21 879.911C3402.39 879.522 3400.47 879.327 3398.46 879.327C3395.54 879.327 3392.94 879.749 3390.66 880.593C3388.46 881.438 3386.44 882.672 3384.62 884.296C3382.87 885.92 3381.31 887.901 3379.95 890.239C3378.66 892.439 3377.47 894.927 3376.36 897.702C3376.22 898.049 3376.15 898.42 3376.15 898.794V957C3376.15 958.657 3374.8 960 3373.15 960H3358.2C3356.54 960 3355.2 958.657 3355.2 957V863.62C3355.2 861.963 3356.54 860.62 3358.2 860.62H3367.38C3369.59 860.62 3371.11 861.042 3371.96 861.886C3372.8 862.666 3373.39 864.062 3373.71 866.076L3373.96 868.591Z" fill="url(#paint18_radial_13_208)"/>
<path d="M515.652 120.768C515.652 187.4 461.253 241.416 394.149 241.416C327.045 241.416 272.646 187.4 272.646 120.768C272.646 54.1364 327.045 0.120605 394.149 0.120605C461.253 0.120605 515.652 54.1364 515.652 120.768Z" fill="url(#paint19_radial_13_208)"/>
<path d="M110.423 218.629C339.675 302.138 445.154 347.241 610.553 221.461C612.739 219.798 616.001 221.264 616.151 224.007C651.007 859.21 -127.29 1185.39 19.3714 1085.95C162.899 988.635 654.791 593.618 105.901 228.86C100.742 225.432 104.602 216.509 110.423 218.629Z" fill="url(#paint20_radial_13_208)"/>
<defs>
<radialGradient id="paint0_radial_13_208" cx="0" cy="0" r="1" gradientUnits="userSpaceOnUse" gradientTransform="translate(1310.5 -1157.5) rotate(72.3483) scale(2807.76 4335.88)">
<stop offset="0.263051" stop-color="#D84587"/>
<stop offset="0.457916" stop-color="#D84587"/>
<stop offset="0.683187" stop-color="#163899"/>
</radialGradient>
<radialGradient id="paint1_radial_13_208" cx="0" cy="0" r="1" gradientUnits="userSpaceOnUse" gradientTransform="translate(1310.5 -1157.5) rotate(72.3483) scale(2807.76 4335.88)">
<stop offset="0.263051" stop-color="#D84587"/>
<stop offset="0.457916" stop-color="#D84587"/>
<stop offset="0.683187" stop-color="#163899"/>
</radialGradient>
<radialGradient id="paint2_radial_13_208" cx="0" cy="0" r="1" gradientUnits="userSpaceOnUse" gradientTransform="translate(1310.5 -1157.5) rotate(72.3483) scale(2807.76 4335.88)">
<stop offset="0.263051" stop-color="#D84587"/>
<stop offset="0.457916" stop-color="#D84587"/>
<stop offset="0.683187" stop-color="#163899"/>
</radialGradient>
<radialGradient id="paint3_radial_13_208" cx="0" cy="0" r="1" gradientUnits="userSpaceOnUse" gradientTransform="translate(1310.5 -1157.5) rotate(72.3483) scale(2807.76 4335.88)">
<stop offset="0.263051" stop-color="#D84587"/>
<stop offset="0.457916" stop-color="#D84587"/>
<stop offset="0.683187" stop-color="#163899"/>
</radialGradient>
<radialGradient id="paint4_radial_13_208" cx="0" cy="0" r="1" gradientUnits="userSpaceOnUse" gradientTransform="translate(1310.5 -1157.5) rotate(72.3483) scale(2807.76 4335.88)">
<stop offset="0.263051" stop-color="#D84587"/>
<stop offset="0.457916" stop-color="#D84587"/>
<stop offset="0.683187" stop-color="#163899"/>
</radialGradient>
<radialGradient id="paint5_radial_13_208" cx="0" cy="0" r="1" gradientUnits="userSpaceOnUse" gradientTransform="translate(1310.5 -1157.5) rotate(72.3483) scale(2807.76 4335.88)">
<stop offset="0.263051" stop-color="#D84587"/>
<stop offset="0.457916" stop-color="#D84587"/>
<stop offset="0.683187" stop-color="#163899"/>
</radialGradient>
<radialGradient id="paint6_radial_13_208" cx="0" cy="0" r="1" gradientUnits="userSpaceOnUse" gradientTransform="translate(1310.5 -1157.5) rotate(72.3483) scale(2807.76 4335.88)">
<stop offset="0.263051" stop-color="#D84587"/>
<stop offset="0.457916" stop-color="#D84587"/>
<stop offset="0.683187" stop-color="#163899"/>
</radialGradient>
<radialGradient id="paint7_radial_13_208" cx="0" cy="0" r="1" gradientUnits="userSpaceOnUse" gradientTransform="translate(1310.5 -1157.5) rotate(72.3483) scale(2807.76 4335.88)">
<stop offset="0.263051" stop-color="#D84587"/>
<stop offset="0.457916" stop-color="#D84587"/>
<stop offset="0.683187" stop-color="#163899"/>
</radialGradient>
<radialGradient id="paint8_radial_13_208" cx="0" cy="0" r="1" gradientUnits="userSpaceOnUse" gradientTransform="translate(1310.5 -1157.5) rotate(72.3483) scale(2807.76 4335.88)">
<stop offset="0.263051" stop-color="#D84587"/>
<stop offset="0.457916" stop-color="#D84587"/>
<stop offset="0.683187" stop-color="#163899"/>
</radialGradient>
<radialGradient id="paint9_radial_13_208" cx="0" cy="0" r="1" gradientUnits="userSpaceOnUse" gradientTransform="translate(1310.5 -1157.5) rotate(72.3483) scale(2807.76 4335.88)">
<stop offset="0.263051" stop-color="#D84587"/>
<stop offset="0.457916" stop-color="#D84587"/>
<stop offset="0.683187" stop-color="#163899"/>
</radialGradient>
<radialGradient id="paint10_radial_13_208" cx="0" cy="0" r="1" gradientUnits="userSpaceOnUse" gradientTransform="translate(1310.5 -1157.5) rotate(72.3483) scale(2807.76 4335.88)">
<stop offset="0.263051" stop-color="#D84587"/>
<stop offset="0.457916" stop-color="#D84587"/>
<stop offset="0.683187" stop-color="#163899"/>
</radialGradient>
<radialGradient id="paint11_radial_13_208" cx="0" cy="0" r="1" gradientUnits="userSpaceOnUse" gradientTransform="translate(1310.5 -1157.5) rotate(72.3483) scale(2807.76 4335.88)">
<stop offset="0.263051" stop-color="#D84587"/>
<stop offset="0.457916" stop-color="#D84587"/>
<stop offset="0.683187" stop-color="#163899"/>
</radialGradient>
<radialGradient id="paint12_radial_13_208" cx="0" cy="0" r="1" gradientUnits="userSpaceOnUse" gradientTransform="translate(1310.5 -1157.5) rotate(72.3483) scale(2807.76 4335.88)">
<stop offset="0.263051" stop-color="#D84587"/>
<stop offset="0.457916" stop-color="#D84587"/>
<stop offset="0.683187" stop-color="#163899"/>
</radialGradient>
<radialGradient id="paint13_radial_13_208" cx="0" cy="0" r="1" gradientUnits="userSpaceOnUse" gradientTransform="translate(1310.5 -1157.5) rotate(72.3483) scale(2807.76 4335.88)">
<stop offset="0.263051" stop-color="#D84587"/>
<stop offset="0.457916" stop-color="#D84587"/>
<stop offset="0.683187" stop-color="#163899"/>
</radialGradient>
<radialGradient id="paint14_radial_13_208" cx="0" cy="0" r="1" gradientUnits="userSpaceOnUse" gradientTransform="translate(1310.5 -1157.5) rotate(72.3483) scale(2807.76 4335.88)">
<stop offset="0.263051" stop-color="#D84587"/>
<stop offset="0.457916" stop-color="#D84587"/>
<stop offset="0.683187" stop-color="#163899"/>
</radialGradient>
<radialGradient id="paint15_radial_13_208" cx="0" cy="0" r="1" gradientUnits="userSpaceOnUse" gradientTransform="translate(1310.5 -1157.5) rotate(72.3483) scale(2807.76 4335.88)">
<stop offset="0.263051" stop-color="#D84587"/>
<stop offset="0.457916" stop-color="#D84587"/>
<stop offset="0.683187" stop-color="#163899"/>
</radialGradient>
<radialGradient id="paint16_radial_13_208" cx="0" cy="0" r="1" gradientUnits="userSpaceOnUse" gradientTransform="translate(1310.5 -1157.5) rotate(72.3483) scale(2807.76 4335.88)">
<stop offset="0.263051" stop-color="#D84587"/>
<stop offset="0.457916" stop-color="#D84587"/>
<stop offset="0.683187" stop-color="#163899"/>
</radialGradient>
<radialGradient id="paint17_radial_13_208" cx="0" cy="0" r="1" gradientUnits="userSpaceOnUse" gradientTransform="translate(1310.5 -1157.5) rotate(72.3483) scale(2807.76 4335.88)">
<stop offset="0.263051" stop-color="#D84587"/>
<stop offset="0.457916" stop-color="#D84587"/>
<stop offset="0.683187" stop-color="#163899"/>
</radialGradient>
<radialGradient id="paint18_radial_13_208" cx="0" cy="0" r="1" gradientUnits="userSpaceOnUse" gradientTransform="translate(1310.5 -1157.5) rotate(72.3483) scale(2807.76 4335.88)">
<stop offset="0.263051" stop-color="#D84587"/>
<stop offset="0.457916" stop-color="#D84587"/>
<stop offset="0.683187" stop-color="#163899"/>
</radialGradient>
<radialGradient id="paint19_radial_13_208" cx="0" cy="0" r="1" gradientUnits="userSpaceOnUse" gradientTransform="translate(1310.5 -1157.5) rotate(72.3483) scale(2807.76 4335.88)">
<stop offset="0.263051" stop-color="#D84587"/>
<stop offset="0.457916" stop-color="#D84587"/>
<stop offset="0.683187" stop-color="#163899"/>
</radialGradient>
<radialGradient id="paint20_radial_13_208" cx="0" cy="0" r="1" gradientUnits="userSpaceOnUse" gradientTransform="translate(1310.5 -1157.5) rotate(72.3483) scale(2807.76 4335.88)">
<stop offset="0.263051" stop-color="#D84587"/>
<stop offset="0.457916" stop-color="#D84587"/>
<stop offset="0.683187" stop-color="#163899"/>
</radialGradient>
</defs>
</svg>
