<?xml version="1.0" encoding="UTF-8" standalone="no"?>
<!DOCTYPE svg PUBLIC "-//W3C//DTD SVG 1.1//EN" "http://www.w3.org/Graphics/SVG/1.1/DTD/svg11.dtd">
<svg width="100%" height="100%" viewBox="0 0 2342 1160" version="1.1" xmlns="http://www.w3.org/2000/svg" xmlns:xlink="http://www.w3.org/1999/xlink" xml:space="preserve" xmlns:serif="http://www.serif.com/" style="fill-rule:evenodd;clip-rule:evenodd;stroke-linejoin:round;stroke-miterlimit:2;">
    <g id="Artboard1" transform="matrix(1,0,0,1,-0.181,-10.519)">
        <rect x="0.181" y="10.519" width="2341.85" height="1159.75" style="fill:none;"/>
        <clipPath id="_clip1">
            <rect x="0.181" y="10.519" width="2341.85" height="1159.75"/>
        </clipPath>
        <g clip-path="url(#_clip1)">
            <g transform="matrix(1,0,0,1,0.181,0.519)">
                <path d="M1789.11,238.656L1683.26,238.656L1683.26,446.411C1683.26,514.129 1755.58,571.985 1845,571.985C1934.41,571.985 2012.65,513.471 2012.65,446.411L2012.65,238.656L1906.8,238.656L1906.8,426.03C1906.8,456.93 1880.5,481.913 1848.28,481.913C1815.41,481.913 1789.11,456.93 1789.11,425.372L1789.11,238.656ZM109.976,124.259L109.976,555.548L0.181,555.548L0.181,35.502L198.074,35.502C284.201,35.502 354.548,105.193 354.548,190.004C354.548,262.324 303.924,322.81 235.549,338.589L388.078,555.548L257.245,555.548L147.45,385.268L147.45,261.009L173.091,261.009C213.853,261.009 246.726,230.766 246.726,193.291C246.726,155.816 215.826,124.259 175.063,124.259L109.976,124.259ZM1120.48,555.548L1120.48,10.519L1016.6,10.519L1016.6,267.584C988.991,240.628 954.146,225.507 914.041,225.507C828.572,225.507 758.882,301.114 758.882,395.13C758.882,488.488 828.572,564.753 914.041,564.753C954.803,564.753 992.936,548.974 1016.6,520.046L1016.6,555.548L1120.48,555.548ZM943.627,475.996C901.55,475.996 867.362,438.522 867.362,392.5C867.362,346.478 901.55,309.003 943.627,309.003C985.704,309.003 1019.89,346.478 1019.89,392.5C1019.23,438.522 985.046,475.996 943.627,475.996M1557.03,272.843C1585.3,246.545 1603.05,211.043 1603.05,172.253C1603.05,136.75 1589.25,104.535 1565.58,78.894C1540.59,51.939 1497.2,35.502 1438.03,35.502L1261.18,35.502L1261.18,555.548L1489.97,555.548C1577.41,554.233 1648.42,487.831 1648.42,406.306C1647.76,347.135 1626.72,305.058 1557.03,272.843M1468.93,465.477L1369.66,465.477L1369.66,128.861L1439.35,128.861C1469.59,128.861 1495.23,151.872 1495.23,182.772C1495.23,213.672 1469.59,238.656 1439.35,238.656L1402.53,238.656L1402.53,332.671L1470.25,332.671C1507.06,332.671 1534.68,362.914 1534.68,399.732C1533.36,436.549 1509.04,463.505 1468.93,465.477" style="fill:rgb(226,27,77);fill-rule:nonzero;"/>
            </g>
            <g transform="matrix(1,0,0,1,0.181,0.519)">
                <path d="M480.122,356.34C480.122,321.495 508.392,293.224 543.237,293.224C578.082,293.224 606.353,321.495 606.353,356.34L480.122,356.34ZM708.916,415.511C709.573,408.279 710.231,401.047 710.231,393.815C711.546,281.39 637.911,220.247 543.237,220.247C448.564,220.247 371.642,297.826 371.642,393.815C371.642,489.803 448.564,567.382 543.237,567.382C615.557,567.382 672.098,534.51 701.026,483.228L616.872,444.439C606.353,467.449 581.37,483.886 551.784,483.886C512.995,483.886 480.779,454.3 480.779,415.511L708.916,415.511ZM2061.3,10.519L2165.18,10.519L2165.18,555.548L2061.3,555.548L2061.3,10.519ZM2238.15,10.519L2342.03,10.519L2342.03,555.548L2238.15,555.548L2238.15,10.519Z" style="fill:rgb(226,27,77);fill-rule:nonzero;"/>
            </g>
            <g transform="matrix(1,0,0,1,0.181,0.519)">
                <path d="M932.45,915.833C932.45,775.138 1046.19,661.398 1186.88,661.398C1327.58,661.398 1441.32,775.138 1441.32,915.833C1441.32,1056.53 1327.58,1170.27 1186.88,1170.27C1046.19,1170.27 932.45,1055.87 932.45,915.833" style="fill:rgb(255,211,0);fill-rule:nonzero;"/>
            </g>
            <g transform="matrix(1,0,0,1,0.181,0.519)">
                <path d="M982.416,764.618C986.361,766.591 990.306,768.563 994.908,771.193C1013.97,784.342 1026.47,795.519 1055.39,819.845C1063.94,828.391 1073.8,842.198 1081.03,850.745C1096.81,870.469 1107.99,884.275 1109.96,900.711C1114.57,933.584 1119.17,951.993 1131.66,985.523C1132.97,988.81 1138.23,993.412 1141.52,997.357C1149.41,1007.22 1152.7,1023 1167.16,1031.55C1175.05,1036.15 1176.37,1036.8 1179,1038.78C1182.94,1042.06 1176.37,1053.9 1155.98,1051.27C1166.5,1056.53 1165.19,1068.36 1150.07,1069.02C1120.48,1070.33 1102.07,1053.24 1098.13,1048.64C1096.16,1046.67 1090.24,1054.56 1079.72,1058.5C1069.2,1063.76 1054.74,1058.5 1043.56,1060.47C1033.04,1062.44 1019.23,1069.02 1008.06,1069.68C988.333,1070.33 985.704,1056.53 985.704,1044.69L985.704,1039.43C983.731,1046.67 976.499,1059.16 976.499,1059.16C973.87,1065.08 969.925,1072.31 962.693,1074.94L941.654,1077.57C925.218,1084.8 908.782,1090.06 891.688,1095.98C881.826,1097.95 870.649,1095.98 863.417,1090.06C857.5,1085.46 854.213,1079.54 850.926,1073.62C847.638,1072.31 843.036,1073.62 839.092,1072.31C835.804,1071.65 833.832,1069.02 831.86,1067.05L817.396,1042.72C816.081,1039.43 816.081,1034.83 817.396,1031.55C820.025,1026.29 825.942,1023.65 831.86,1023.65C842.379,1023 854.213,1019.71 864.732,1023.65C869.334,1018.4 876.566,1019.05 883.141,1017.74C880.511,1013.79 876.566,1011.82 873.279,1008.53C854.213,1013.14 833.174,1009.85 814.766,1006.56C797.672,1002.62 783.208,1012.48 766.114,1009.85L760.855,1021.02C752.965,1029.57 752.308,1044.04 740.473,1049.95C731.927,1051.93 725.352,1057.84 718.12,1061.79C704.971,1069.02 687.22,1065.73 672.756,1063.1C666.839,1062.44 662.894,1063.1 657.634,1065.08C653.032,1068.36 647.773,1073.62 642.513,1077.57C633.966,1080.85 626.734,1088.09 617.53,1088.74C612.27,1088.74 607.01,1085.46 601.751,1086.77C595.176,1094 591.889,1105.84 581.37,1109.12C570.85,1112.41 557.701,1109.78 547.182,1107.15C543.895,1108.47 541.923,1111.1 537.978,1110.44C530.746,1108.47 523.514,1106.49 516.939,1102.55C514.309,1099.92 513.652,1096.63 512.995,1094C512.995,1089.4 516.939,1085.46 518.912,1081.51C519.569,1076.91 519.569,1070.33 521.541,1065.73C524.829,1058.5 532.061,1053.9 539.293,1050.61C539.95,1045.35 543.237,1040.75 547.84,1038.12C556.386,1033.52 565.591,1023 576.768,1028.91L588.602,1038.78C599.121,1034.17 596.491,1023.65 601.751,1015.11C604.381,1009.19 607.668,1002.62 614.242,1002.62C618.845,1001.96 624.104,1003.27 628.706,1002.62C635.281,1000.64 642.513,998.014 647.115,992.755L646.458,988.81C639.883,976.319 637.911,961.197 637.253,946.076C625.419,947.391 612.928,949.363 600.436,946.733C582.027,944.103 564.276,929.639 557.044,911.231C549.155,893.479 552.442,868.496 564.933,853.375C574.795,841.541 585.972,831.021 597.806,821.817C593.861,820.502 589.259,821.159 585.314,819.845C568.221,817.215 551.127,802.093 547.182,785C544.552,773.823 547.182,763.304 552.442,754.099C554.414,752.127 556.386,750.155 559.674,751.469C568.221,754.757 570.85,759.359 578.74,763.304L583.342,765.933C605.038,773.165 633.966,773.165 642.513,800.121C647.773,821.159 634.623,836.938 619.502,848.773C607.668,857.319 595.834,867.839 589.917,880.33C587.287,889.535 588.602,898.739 596.491,905.314C604.381,913.203 618.187,913.203 628.049,909.258C646.458,901.369 663.551,889.535 679.988,877.043C695.767,865.209 714.833,860.607 735.214,859.949C744.418,857.977 752.308,854.032 759.54,848.115C772.031,836.281 785.18,826.419 800.959,822.474C808.191,821.159 815.423,820.502 822.655,819.845C828.572,817.215 832.517,809.983 837.119,806.696C858.815,787.629 887.743,788.287 910.754,773.165C923.903,763.304 938.367,756.729 955.461,757.386C963.35,758.044 970.582,759.359 977.157,761.989L982.416,764.618ZM1004.11,988.153C989.648,988.81 980.444,992.097 970.582,993.412C971.24,1002.62 976.499,1010.51 983.731,1020.37C987.676,1005.25 1000.17,999.329 1004.11,988.153M1374.26,991.44C1380.83,1001.3 1384.78,1011.16 1390.69,1021.68C1396.61,1010.51 1401.87,999.987 1407.13,993.412C1406.47,992.755 1389.38,994.727 1374.26,991.44M1388.07,1040.09C1387.41,1042.06 1386.09,1042.72 1383.46,1042.72C1385.43,1051.93 1378.86,1069.02 1362.42,1069.68C1351.25,1070.33 1332.84,1059.16 1322.32,1058.5C1311.14,1057.84 1290.76,1066.39 1278.93,1048.64C1263.15,1067.7 1244.74,1072.96 1228.96,1072.31C1219.76,1072.31 1209.89,1067.05 1223.7,1055.21C1193.46,1065.08 1193.46,1044.69 1198.72,1040.75C1202.01,1038.12 1205.95,1036.15 1217.13,1024.97C1259.2,980.921 1243.42,904.656 1289.45,854.032C1307.2,834.309 1321.66,823.132 1357.82,797.491C1370.31,788.944 1382.81,776.453 1394.64,767.906L1395.3,769.221L1395.3,768.563C1402.53,763.304 1409.1,758.044 1416.99,756.072C1433.43,754.099 1448.55,759.359 1461.04,767.906C1467.62,772.508 1472.88,777.768 1478.14,784.342C1482.08,788.287 1488,788.287 1493.26,790.259C1508.38,792.889 1521.53,798.806 1534.02,806.696C1542.57,811.955 1549.8,821.159 1560.32,822.474C1572.81,824.447 1583.99,828.391 1595.16,834.966C1608.31,843.513 1620.15,854.032 1635.92,856.662C1667.48,859.949 1693.78,877.7 1718.76,895.452C1733.23,903.999 1750.32,913.86 1768.07,907.943C1773.33,905.971 1777.28,901.369 1778.59,896.767C1779.91,884.932 1772.68,875.728 1765.44,867.181C1750.32,849.43 1724.02,834.309 1727.31,808.668C1731.91,789.602 1752.95,778.425 1769.39,773.165C1778.59,769.878 1789.77,771.193 1797.66,763.304C1801.6,760.674 1803.58,751.469 1810.15,754.757C1815.41,758.044 1816.07,764.618 1816.73,770.536C1819.36,788.944 1815.41,807.353 1798.32,817.872C1790.43,823.132 1781.88,825.104 1772.68,827.077C1786.48,838.253 1800.29,852.06 1808.18,867.839C1812.78,877.043 1815.41,884.932 1816.07,895.452C1815.41,915.175 1803.58,932.269 1786.48,942.131C1776.62,947.391 1765.44,949.363 1753.61,949.363C1749.01,949.363 1745.06,948.048 1741.12,948.048C1743.09,957.252 1743.09,969.744 1741.12,980.263C1740.46,985.523 1737.17,991.44 1737.17,998.014C1739.8,1001.3 1743.75,1001.3 1747.04,1001.3C1755.58,1001.3 1766.1,1000.64 1770.7,1009.85C1774.65,1018.4 1776.62,1028.26 1779.91,1036.8C1781.22,1038.12 1781.88,1041.41 1783.85,1040.75C1789.77,1035.49 1795.69,1028.26 1804.23,1030.23C1812.12,1035.49 1820.01,1041.41 1827.9,1047.32C1829.87,1049.3 1830.53,1051.93 1831.19,1055.21C1837.76,1057.84 1846.31,1062.44 1848.28,1070.33C1849.6,1075.59 1848.94,1080.85 1850.26,1085.46C1852.23,1090.71 1857.49,1097.29 1853.54,1103.87L1850.91,1105.84L1825.93,1113.73C1823.96,1113.73 1821.99,1112.41 1820.01,1110.44C1806.86,1109.78 1791.08,1113.73 1780.57,1104.52C1775.96,1100.58 1772.68,1095.98 1769.39,1090.71C1761.5,1094.66 1750.32,1097.29 1742.43,1092.03C1726,1079.54 1709.56,1067.05 1687.21,1067.7C1677.35,1069.68 1665.51,1072.31 1655.65,1068.36C1646.44,1061.79 1635.92,1058.5 1628.69,1048.64C1618.17,1037.46 1618.17,1024.31 1614.23,1010.51C1599.77,1013.79 1583.99,1011.82 1569.52,1011.16C1557.69,1010.51 1546.51,1012.48 1535.34,1015.11C1521.53,1017.74 1506.41,1019.05 1491.94,1018.4L1484.71,1023.65C1488,1024.31 1491.29,1024.31 1493.91,1026.94L1496.55,1029.57C1508.38,1030.89 1522.19,1028.91 1533.36,1031.55C1535.99,1032.2 1538.62,1034.83 1539.94,1037.46C1541.25,1040.75 1541.25,1044.69 1539.28,1047.32C1533.36,1055.21 1530.08,1064.42 1522.19,1070.99C1520.21,1073.62 1514.3,1070.33 1513.64,1074.94C1511.01,1086.77 1499.83,1096.63 1488.66,1099.26C1484.05,1099.92 1478.79,1099.26 1474.85,1097.95C1461.04,1093.35 1447.24,1089.4 1433.43,1085.46C1428.83,1084.14 1424.88,1079.54 1420.94,1076.91C1415.02,1076.91 1406.47,1078.88 1402.53,1073.62C1400.56,1072.31 1398.59,1067.7 1397.93,1065.73C1393.33,1059.82 1390.04,1049.3 1388.07,1040.09" style="fill:rgb(255,211,0);"/>
            </g>
            <g transform="matrix(1,0,0,1,0.181,0.519)">
                <path d="M975.842,847.458C979.787,857.319 979.787,870.469 977.157,880.988C976.499,881.645 975.842,881.645 975.184,880.988C973.212,871.783 971.24,862.579 967.952,853.375C965.98,848.115 959.406,843.513 962.035,837.596C963.35,836.281 965.98,836.281 967.952,836.938C971.24,840.226 973.212,843.513 975.842,847.458M1081.03,939.501C1088.27,948.048 1093.53,957.252 1090.9,968.429C1089.58,970.401 1090.24,974.346 1086.95,975.004C1085.64,975.661 1084.32,974.346 1084.32,973.031C1083.66,967.114 1083.66,960.54 1080.38,955.937C1076.43,951.993 1071.83,944.103 1065.26,944.103C1060.65,945.418 1057.37,950.678 1054.74,953.965C1054.74,954.623 1054.08,954.623 1053.42,953.965C1050.79,947.391 1056.05,942.131 1058.02,936.871C1061.97,932.927 1061.31,921.75 1069.86,925.037C1075.78,928.982 1077.09,935.556 1081.03,939.501M1067.23,1017.74C1067.88,1021.68 1067.88,1027.6 1063.94,1030.23C1060,1031.55 1054.74,1032.2 1050.13,1031.55C1048.82,1030.89 1047.5,1030.23 1048.16,1028.91C1050.13,1023 1056.05,1016.42 1062.63,1015.11C1063.94,1015.11 1066.57,1015.11 1067.23,1017.74M587.287,777.768C603.066,781.712 620.159,781.712 631.994,794.204C638.568,802.093 639.226,815.9 633.966,823.789C624.762,839.568 606.353,847.458 595.176,861.264C584,870.469 580.055,884.932 583.342,899.396C587.287,911.888 599.778,920.435 612.27,921.092C631.994,921.75 646.458,911.888 662.237,902.684C678.015,891.507 692.479,877.043 710.231,872.441C722.065,868.496 735.214,870.469 747.048,865.866C759.54,863.237 769.401,852.717 779.263,843.513C790.44,834.309 803.589,829.049 818.053,829.706C831.202,831.679 838.434,819.845 847.638,811.955C862.76,798.149 882.483,796.834 900.235,788.944C912.726,785 922.588,775.795 934.422,769.878C945.599,765.276 960.72,763.961 971.897,768.563C979.129,771.85 987.019,775.138 993.593,780.397L1046.85,825.104C1047.5,827.077 1049.48,828.391 1050.79,829.049C1065.91,847.458 1081.69,865.209 1094.18,885.59C1098.13,892.822 1100.1,900.054 1102.07,907.943C1104.7,938.186 1112.59,964.484 1122.45,990.783C1125.08,994.727 1130.34,998.014 1132.97,1001.96C1141.52,1013.79 1146.78,1028.91 1160.59,1036.8L1168.48,1040.75C1169.13,1041.41 1169.13,1042.72 1168.48,1043.38L1167.16,1044.69C1150.73,1047.32 1138.23,1037.46 1129.69,1025.63C1124.43,1015.11 1117.19,1003.93 1105.36,999.329C1104.7,999.329 1104.05,999.987 1104.05,999.987C1105.36,1003.93 1109.31,1006.56 1110.62,1009.85C1115.22,1017.08 1119.17,1024.97 1121.14,1032.86C1123.77,1041.41 1132.97,1047.32 1140.2,1051.93L1150.73,1057.18C1152.04,1057.84 1152.7,1059.82 1151.38,1061.13L1150.07,1061.79C1132.32,1062.44 1116.54,1056.53 1104.05,1043.38C1101.41,1040.09 1097.47,1037.46 1092.87,1037.46C1084.98,1044.69 1077.09,1051.27 1066.57,1051.93C1055.39,1049.95 1043.56,1049.95 1033.7,1053.9C1024.49,1057.18 1015.29,1061.13 1005.43,1061.13C1000.83,1061.13 995.565,1059.16 993.593,1054.56C993.593,1048.64 989.648,1042.06 992.936,1036.15L999.51,1026.29C999.51,1024.97 998.853,1023.65 997.538,1023.65C994.908,1023 990.306,1027.6 988.991,1023C989.648,1013.14 999.51,1006.56 1006.09,999.987C1007.4,992.097 1010.69,984.865 1016.6,978.291C1016.6,977.633 1015.95,976.319 1014.63,976.319C1006.09,977.633 997.538,979.606 988.333,979.606C981.101,983.551 971.897,986.18 963.35,983.551C961.378,982.236 962.035,980.263 962.693,978.948C971.897,966.457 975.184,950.678 972.555,935.556C971.897,934.899 971.897,933.584 970.582,933.584C969.267,933.584 969.267,934.899 968.61,935.556C966.638,950.02 962.035,961.197 954.146,973.689C948.229,979.606 939.024,979.606 931.135,981.578C929.163,982.236 927.19,984.208 927.19,986.18C927.19,991.44 930.478,994.727 932.45,999.329L949.544,1030.89C950.201,1039.43 946.256,1047.98 944.284,1055.87C944.942,1057.18 946.256,1056.53 947.571,1055.87C953.488,1050.61 957.433,1043.38 960.063,1035.49C960.72,1032.2 959.406,1028.26 958.091,1025.63L940.339,990.125C941.654,988.153 944.284,988.153 946.256,987.495C950.201,987.495 954.146,989.468 958.091,990.783C962.035,1001.3 966.638,1012.48 973.87,1021.68C975.184,1027.6 977.157,1035.49 973.212,1040.09C969.267,1047.98 965.323,1054.56 960.063,1061.79C955.461,1066.39 948.886,1065.73 942.312,1066.39L940.339,1066.39C924.56,1074.94 908.124,1080.2 891.03,1085.46C883.798,1088.74 875.251,1086.11 869.334,1081.51C863.417,1076.91 860.787,1070.33 856.843,1064.42C852.241,1058.5 845.009,1063.76 839.749,1060.47C835.147,1053.24 830.545,1046.01 826.6,1038.12C826.6,1036.15 826.6,1034.17 828.572,1032.86C834.489,1030.89 841.064,1030.89 847.638,1030.23C853.556,1029.57 860.13,1030.89 864.075,1034.83C871.964,1044.04 875.251,1056.53 887.086,1062.44C896.29,1063.1 904.179,1060.47 912.069,1056.53C916.671,1053.9 921.931,1049.95 921.931,1044.04C921.273,1032.2 913.384,1023 903.522,1016.42C893.66,1011.16 883.141,1003.93 875.909,994.727C871.964,989.468 871.307,983.551 869.334,978.291C868.677,976.976 866.047,976.976 865.39,977.633C861.445,980.921 864.732,986.838 864.732,990.783C865.39,993.412 866.705,996.7 865.39,998.672C859.473,1003.27 851.583,1000.64 844.351,1001.3C829.887,1000.64 816.081,994.727 800.959,996.042C786.495,996.7 766.772,1006.56 756.252,992.097C750.993,978.291 752.308,961.855 754.937,948.048C754.937,946.733 753.623,945.418 752.308,945.418C750.993,944.761 749.678,945.418 749.02,946.733C745.076,960.54 744.418,975.661 741.131,990.125C735.871,1002.62 726.667,1015.77 714.175,1022.34C702.999,1028.26 689.85,1030.23 676.043,1031.55C651.06,1032.2 628.049,1036.8 612.27,1058.5C610.955,1060.47 608.983,1062.44 609.64,1065.08C610.298,1065.73 612.27,1066.39 612.928,1065.73C630.021,1046.67 651.717,1038.78 676.7,1040.09C700.369,1040.09 724.037,1036.15 739.159,1015.77C743.103,1011.16 745.733,1006.56 749.02,1001.3C751.65,1001.3 753.623,1004.59 755.595,1005.9C756.252,1013.14 750.335,1017.74 747.705,1023.65C744.418,1030.23 741.131,1038.12 734.556,1042.06C726.667,1044.04 720.092,1049.3 712.86,1053.24C705.628,1056.53 696.424,1057.84 687.877,1055.87C677.358,1053.9 662.894,1051.27 652.375,1055.87C647.115,1059.16 642.513,1065.08 637.253,1068.36C630.021,1071.65 623.447,1077.57 614.9,1076.91C608.983,1075.59 601.751,1071.65 596.491,1076.91C589.917,1082.83 588.602,1093.35 580.055,1097.29C570.193,1102.55 559.674,1097.29 549.812,1096.63C551.127,1086.77 552.442,1077.57 559.016,1070.33C562.961,1069.68 566.248,1069.02 569.536,1066.39C573.48,1063.1 576.11,1058.5 578.74,1053.9C587.287,1048.64 597.149,1044.69 602.408,1035.49C606.353,1026.94 606.353,1019.05 612.928,1011.16L616.215,1009.85L633.966,1008.53C641.198,1005.25 647.773,1001.96 654.347,996.7C656.319,994.727 656.977,991.44 656.319,988.153C653.032,979.606 650.402,973.689 648.43,964.484C646.458,955.28 647.773,946.076 646.458,935.556C645.8,934.899 645.143,932.927 643.828,932.927C631.994,935.556 620.817,938.844 607.668,936.871C589.917,934.899 571.508,923.065 564.933,905.314C559.016,890.192 560.331,868.496 571.508,856.005C582.027,842.855 595.176,832.994 608.325,821.817C610.298,820.502 610.298,817.872 610.955,815.9C610.955,813.27 608.325,811.298 606.353,809.983C598.464,808.01 589.259,810.64 581.37,807.353C567.563,802.751 557.044,789.602 555.072,775.138C554.414,768.563 555.729,763.304 559.016,758.044C569.536,767.248 577.425,775.138 587.287,777.768M547.84,1071.65L547.84,1073.62C544.552,1081.51 542.58,1090.71 539.95,1099.92C534.033,1099.26 528.773,1097.29 524.171,1095.32C522.856,1094 524.171,1092.69 524.171,1091.37C530.088,1086.11 528.116,1079.54 529.431,1072.31C530.088,1068.36 534.033,1065.08 537.978,1063.1C542.58,1063.76 545.21,1068.36 547.84,1071.65M576.768,1044.04C573.48,1050.61 568.878,1058.5 561.646,1062.44C559.016,1063.1 555.729,1063.1 553.099,1061.79C551.784,1060.47 549.155,1059.16 549.155,1056.53C549.812,1053.9 548.497,1050.61 551.127,1049.3C556.386,1046.01 561.646,1042.72 566.906,1038.12C568.221,1037.46 570.85,1036.8 571.508,1038.12C574.138,1040.09 576.11,1041.41 576.768,1044.04M906.152,1041.41C906.809,1044.04 910.754,1047.32 908.124,1049.95C902.865,1053.9 896.947,1056.53 889.715,1055.87C884.456,1051.93 885.113,1044.69 880.511,1039.43C879.196,1035.49 873.279,1035.49 874.594,1031.55L876.566,1030.23C883.798,1030.23 891.03,1030.23 898.262,1028.91C905.494,1028.26 903.522,1036.8 906.152,1041.41M1321.66,934.242C1325.61,939.501 1328.89,944.761 1331.52,951.335C1332.18,952.65 1331.52,953.965 1330.87,955.28C1330.21,956.595 1328.89,957.91 1326.92,956.595C1322.32,955.28 1322.98,948.048 1317.06,948.705C1313.12,948.705 1310.49,951.993 1307.2,953.965C1301.28,959.225 1293.39,964.484 1292.08,972.374C1290.76,975.004 1291.42,979.606 1288.79,980.921C1287.48,981.578 1285.5,980.263 1285.5,978.948C1284.85,968.429 1288.13,958.567 1295.36,951.335C1302.6,945.418 1307.86,936.871 1313.77,929.639C1317.72,928.982 1320.35,931.612 1321.66,934.242M1324.29,1021.68C1325.61,1024.31 1328.24,1027.6 1326.27,1030.89C1323.63,1032.86 1319.03,1031.55 1315.75,1031.55C1311.8,1029.57 1310.49,1024.31 1310.49,1019.71C1310.49,1018.4 1310.49,1017.74 1311.8,1016.42C1316.4,1016.42 1321.01,1017.74 1324.29,1021.68M1422.91,820.502C1424.88,823.132 1422.91,825.762 1421.6,827.734C1412.39,836.281 1401.21,845.485 1394.64,856.005C1392.01,859.292 1390.04,863.237 1388.72,867.181C1388.72,867.839 1388.07,867.839 1387.41,867.839C1385.43,862.579 1388.07,856.662 1389.38,851.402C1393.98,838.911 1404.5,827.077 1415.68,818.53C1416.99,817.872 1421.6,817.215 1422.91,820.502M1460.38,778.425C1467.62,783.027 1470.25,792.889 1478.79,794.861C1493.26,798.149 1507.72,801.436 1520.87,808.01C1530.08,812.613 1538.62,819.187 1547.17,826.419C1555.06,830.364 1564.92,830.364 1573.47,832.994C1585.96,836.281 1595.82,845.485 1607,852.717C1621.46,863.894 1641.84,862.579 1658.28,869.811C1684.58,878.358 1705.62,898.739 1729.94,910.573C1742.43,917.148 1761.5,919.778 1773.99,912.546C1782.54,906.628 1787.8,898.739 1785.83,887.562C1781.22,860.607 1751.64,846.8 1737.83,824.447C1735.2,819.187 1733.23,811.955 1734.54,806.038C1739.8,792.889 1753.61,785.657 1765.44,781.055C1774.65,776.453 1786.48,777.768 1795.03,772.508C1798.32,770.536 1800.95,767.906 1802.92,765.933C1804.89,765.933 1804.89,767.906 1805.55,769.221C1808.18,785 1805.55,801.436 1791.74,810.64C1786.48,814.585 1779.91,815.9 1773.99,817.215C1768.73,819.187 1758.21,815.242 1758.87,824.447C1760.18,829.049 1764.13,831.679 1767.42,834.966C1785.83,850.087 1802.92,869.811 1804.89,893.479C1805.55,911.888 1793.06,927.667 1777.28,935.556C1765.44,940.159 1750.98,942.131 1738.49,938.844C1735.2,938.186 1729.94,934.899 1727.31,939.501C1726.65,944.761 1729.94,948.705 1729.94,953.308C1731.26,961.855 1731.26,973.031 1728.63,981.578C1727.31,988.153 1720.74,996.042 1726.65,1002.62C1732.57,1011.82 1744.4,1009.19 1754.27,1010.51C1759.53,1011.16 1761.5,1017.08 1762.81,1021.02C1764.79,1026.29 1764.79,1032.2 1766.76,1036.15C1766.76,1046.01 1777.93,1049.95 1783.19,1056.53C1789.77,1063.76 1795.69,1076.25 1806.86,1075.59C1810.81,1083.48 1812.78,1090.71 1814.1,1099.92L1812.78,1101.24C1803.58,1101.24 1791.08,1103.87 1784.51,1097.29C1776.62,1092.03 1773.99,1077.57 1762.16,1081.51C1756.9,1085.46 1749.66,1086.77 1743.75,1084.14C1737.83,1082.17 1733.89,1076.91 1728.63,1073.62C1712.85,1061.79 1691.81,1055.87 1671.43,1060.47C1659.59,1063.76 1650.39,1055.21 1641.18,1049.95C1628.69,1044.69 1625.41,1031.55 1622.78,1020.37L1620.8,1006.56C1620.8,1005.25 1622.12,1003.93 1623.43,1003.27L1625.41,1003.27C1632.64,1019.71 1646.44,1038.12 1664.2,1044.04C1680.63,1050.61 1695.75,1042.06 1713.51,1045.35C1729.94,1047.32 1743.09,1057.84 1755.58,1067.7C1756.9,1067.7 1757.55,1067.05 1758.21,1065.73L1758.21,1064.42C1743.09,1045.35 1722.05,1035.49 1697.73,1037.46C1677.35,1041.41 1657.62,1034.83 1645.79,1017.74C1639.21,1007.88 1634.61,997.357 1632.64,986.18C1630.67,973.031 1628.04,958.567 1623.43,946.733C1622.12,946.076 1620.8,944.761 1619.49,945.418L1618.17,947.391C1620.15,959.882 1624.09,975.004 1619.49,988.153C1616.2,998.672 1605.68,1002.62 1595.82,1003.27C1585.96,1003.93 1576.75,1001.96 1566.24,1001.96C1542.57,1001.3 1521.53,1010.51 1497.2,1008.53C1499.17,1002.62 1503.12,996.7 1501.15,990.125C1500.49,988.81 1498.52,988.81 1497.2,988.81C1492.6,991.44 1493.26,997.357 1490.63,1001.3C1485.37,1009.85 1475.51,1017.74 1465.64,1019.71C1458.41,1024.97 1451.84,1032.2 1445.92,1038.78C1443.95,1040.75 1443.95,1044.69 1444.61,1047.32C1449.21,1059.16 1463.02,1060.47 1473.53,1063.76C1478.79,1064.42 1483.4,1062.44 1486.03,1057.84C1490.63,1050.61 1491.29,1038.78 1501.81,1037.46L1524.82,1037.46C1526.79,1038.12 1528.1,1039.43 1529.42,1041.41L1528.76,1044.69C1523.5,1050.61 1521.53,1059.16 1514.95,1063.1C1511.01,1064.42 1506.41,1063.1 1503.78,1066.39C1502.46,1074.28 1500.49,1082.83 1492.6,1086.77C1486.68,1092.03 1478.14,1089.4 1471.56,1087.43C1459.07,1082.83 1446.58,1080.2 1434.09,1076.25C1428.83,1074.94 1426.86,1068.36 1420.94,1067.05C1415.68,1065.73 1409.76,1069.68 1405.16,1065.08C1402.53,1059.16 1401.21,1055.21 1399.9,1048.64C1397.93,1044.69 1396.61,1040.09 1395.95,1035.49C1395.3,1031.55 1395.95,1028.91 1397.27,1025.63L1414.36,994.727C1415.68,992.755 1416.99,990.783 1418.97,990.125C1422.91,990.783 1427.51,992.755 1431.46,994.727L1430.8,996.7L1413.05,1023.65C1409.1,1032.2 1413.05,1042.06 1416.99,1049.3C1417.65,1049.95 1418.31,1051.27 1418.97,1050.61C1418.31,1045.35 1417.65,1040.09 1418.97,1034.17C1420.28,1028.91 1423.57,1024.31 1426.2,1019.71L1440,999.329C1441.32,996.042 1441.32,990.783 1438.69,987.495C1432.77,981.578 1424.23,979.606 1418.97,971.716C1407.79,956.595 1406.47,938.844 1405.16,919.778C1405.16,918.463 1403.84,916.49 1401.87,915.833C1400.56,915.175 1399.24,917.148 1398.59,917.805C1395.3,930.297 1397.27,945.418 1400.56,956.595C1402.53,965.142 1406.47,973.689 1410.42,981.578C1411.08,982.893 1409.76,984.865 1408.45,985.523C1399.24,986.18 1390.04,985.523 1381.49,984.208C1369.66,982.236 1361.11,973.031 1351.25,965.799C1349.93,965.142 1349.28,966.457 1348.62,967.114C1351.25,980.263 1365.71,988.153 1370.31,999.987C1372.94,1009.85 1382.81,1017.08 1384.78,1027.6C1384.78,1028.91 1383.46,1030.89 1382.15,1031.55C1378.86,1032.2 1375.57,1030.23 1372.29,1032.2C1371.63,1038.12 1375.57,1044.04 1372.94,1049.3C1369.66,1054.56 1365.05,1060.47 1359.14,1060.47C1347.3,1056.53 1335.47,1051.27 1323.63,1047.98C1315.09,1047.32 1306.54,1048.64 1298.65,1049.3C1290.76,1047.98 1285.5,1040.75 1279.59,1036.8C1277.61,1036.15 1275.64,1036.15 1274.33,1037.46C1261.18,1050.61 1246.71,1065.08 1226.99,1064.42C1225.67,1064.42 1225.02,1063.1 1225.02,1061.79L1225.02,1060.47C1233.56,1052.58 1244.08,1044.69 1248.03,1033.52C1250.66,1024.31 1258.55,1017.74 1261.83,1009.19C1262.49,1007.88 1261.18,1007.22 1259.86,1006.56L1257.89,1007.88C1248.03,1017.74 1240.8,1028.91 1233.56,1039.43C1226.33,1046.67 1215.81,1051.27 1204.64,1048.64C1203.32,1047.98 1203.32,1046.01 1203.98,1044.69C1244.74,1019.71 1249.34,975.004 1260.52,934.242C1268.41,907.286 1274.33,879.673 1295.36,857.977C1326.92,823.132 1366.37,802.751 1401.21,772.508C1406.47,767.906 1411.73,763.304 1418.31,763.304C1435.4,761.989 1448.55,768.563 1460.38,778.425M1835.79,1069.02C1839.08,1073.62 1837.76,1080.85 1839.08,1086.11C1839.74,1090.06 1845,1093.35 1842.37,1097.29L1827.9,1101.89C1825.27,1101.89 1826.59,1098.61 1825.27,1097.29C1823.96,1088.74 1821.99,1082.83 1819.36,1074.94C1818.7,1070.33 1823.3,1067.05 1826.59,1064.42C1829.87,1063.1 1832.5,1067.05 1835.79,1069.02M1802.26,1039.43C1807.52,1044.04 1814.75,1047.32 1818.7,1053.24C1819.36,1055.87 1817.38,1058.5 1816.07,1060.47C1814.1,1062.44 1811.47,1063.76 1808.18,1063.76C1804.89,1063.76 1802.26,1061.79 1800.29,1059.16C1797,1053.9 1792.4,1049.3 1791.08,1044.04C1793.06,1040.75 1797.66,1035.49 1802.26,1039.43M1485.37,1034.17C1484.71,1040.75 1482.74,1046.67 1480.11,1052.58C1478.14,1056.53 1472.22,1055.21 1468.28,1054.56C1464.33,1053.24 1457.76,1052.58 1457.1,1046.67C1456.44,1041.41 1459.07,1036.15 1461.7,1032.2C1467.62,1031.55 1474.85,1032.86 1480.77,1031.55C1483.4,1031.55 1485.37,1032.2 1485.37,1034.17" style="fill:rgb(226,27,77);"/>
            </g>
        </g>
    </g>
</svg>
